<?xml version="1.0" standalone="no"?>
<!DOCTYPE svg PUBLIC "-//W3C//DTD SVG 20010904//EN"
 "http://www.w3.org/TR/2001/REC-SVG-20010904/DTD/svg10.dtd">
<svg version="1.0" xmlns="http://www.w3.org/2000/svg"
 width="512.000000pt" height="512.000000pt" viewBox="0 0 512.000000 512.000000"
 preserveAspectRatio="xMidYMid meet">
<metadata>
Created by potrace 1.11, written by Peter Selinger 2001-2013
</metadata>
<g transform="translate(0.000000,512.000000) scale(0.100000,-0.100000)"
fill="#000000" stroke="none">
<path d="M3938 3332 c-16 -2 -28 -5 -28 -7 0 -1 -25 -74 -56 -161 -31 -88 -59
-170 -64 -184 -8 -25 -87 -252 -230 -660 -40 -113 -76 -216 -80 -230 -5 -14
-29 -82 -53 -152 -56 -160 -59 -156 105 -155 l117 0 20 56 c10 31 49 142 86
246 37 105 101 287 142 405 94 270 150 430 209 595 75 212 76 217 60 233 -13
14 -156 22 -228 14z"/>
<path d="M1551 3218 c-21 -49 -68 -150 -131 -283 -37 -78 -108 -230 -210 -450
-15 -33 -46 -98 -68 -145 -21 -47 -56 -121 -77 -165 -20 -44 -55 -118 -77
-164 -60 -128 -63 -125 120 -129 l153 -3 41 91 c26 56 47 90 57 91 53 4 458 4
469 1 8 -3 32 -45 54 -94 l41 -89 150 3 c120 2 152 6 159 18 7 11 -9 56 -61
164 -39 82 -71 150 -71 151 0 2 -31 69 -70 150 -38 81 -70 148 -70 150 0 2
-24 54 -54 116 -115 244 -141 300 -235 504 -54 119 -55 119 -80 123 -17 3 -25
-6 -40 -40z m102 -746 c32 -68 57 -127 57 -131 0 -5 -54 -8 -120 -9 -66 0
-120 1 -120 3 0 3 62 139 105 228 10 21 19 36 20 35 1 -2 27 -59 58 -126z"/>
<path d="M2755 3249 c-22 -4 -49 -10 -60 -13 -43 -9 -142 -54 -198 -90 -140
-90 -277 -281 -303 -422 -3 -15 -8 -32 -11 -37 -13 -21 -11 -209 3 -268 17
-71 63 -192 76 -197 4 -2 8 -8 8 -13 0 -18 49 -83 108 -142 175 -179 434 -251
669 -187 81 22 144 54 223 115 102 79 101 66 14 188 -42 59 -84 112 -94 117
-15 8 -27 2 -61 -26 -143 -120 -278 -140 -429 -64 -126 64 -208 191 -214 331
-3 73 5 113 41 186 43 90 149 177 250 208 70 20 188 8 253 -27 48 -26 105 -65
119 -82 7 -9 19 -16 27 -16 12 0 65 61 119 135 11 15 30 42 43 59 l23 31 -46
42 c-80 73 -166 124 -270 158 -57 19 -229 27 -290 14z"/>
<path d="M4307 3088 c-14 -8 -16 -29 -14 -152 l2 -144 187 -107 c104 -58 188
-108 188 -110 0 -2 -78 -48 -172 -101 -95 -53 -180 -103 -188 -110 -24 -20
-20 -282 4 -300 15 -10 47 7 229 123 117 75 277 177 357 228 80 50 162 102
182 116 37 23 46 43 30 64 -4 6 -90 63 -192 126 -102 64 -278 175 -391 246
-156 99 -210 128 -222 121z"/>
<path d="M580 2960 c-113 -72 -253 -161 -313 -198 -228 -142 -262 -167 -263
-188 -1 -15 20 -34 80 -72 45 -28 223 -141 396 -251 279 -178 316 -199 330
-186 13 12 16 38 15 155 l0 140 -180 101 c-99 56 -184 105 -188 109 -5 4 75
54 177 111 214 120 199 97 194 284 -3 111 -4 120 -23 122 -11 2 -108 -53 -225
-127z"/>
</g>
</svg>
