<?xml version="1.0" standalone="no"?>
<!DOCTYPE svg PUBLIC "-//W3C//DTD SVG 20010904//EN"
 "http://www.w3.org/TR/2001/REC-SVG-20010904/DTD/svg10.dtd">
<svg version="1.0" xmlns="http://www.w3.org/2000/svg"
 width="1565.000000pt" height="1565.000000pt" viewBox="0 0 1565.000000 1565.000000"
 preserveAspectRatio="xMidYMid meet">
<metadata>
Created by potrace 1.11, written by Peter Selinger 2001-2013
</metadata>
<g transform="translate(0.000000,1565.000000) scale(0.100000,-0.100000)"
fill="#000000" stroke="none">
<path d="M11142 7898 c-441 -1261 -802 -2297 -802 -2301 0 -5 14 -29 32 -53
l31 -44 372 0 371 0 805 2298 806 2297 -32 45 -31 45 -376 3 -375 2 -801
-2292z"/>
<path d="M4847 9963 c-8 -15 -438 -936 -956 -2046 l-942 -2018 31 -50 32 -49
452 0 453 0 124 273 125 272 749 2 750 3 124 -275 124 -275 454 0 453 0 30 47
c17 26 30 50 30 53 0 4 -429 925 -953 2046 l-953 2039 -56 3 c-54 3 -58 1 -71
-25z m263 -2399 l177 -389 -365 -3 c-201 -1 -367 0 -370 3 -3 2 78 185 179
406 131 285 186 397 193 387 5 -8 89 -190 186 -404z"/>
<path d="M8585 9969 c-822 -87 -1542 -672 -1809 -1472 -172 -517 -132 -1071
113 -1572 293 -598 851 -1028 1501 -1159 574 -116 1110 2 1565 344 123 93 317
270 312 284 -3 8 -446 636 -482 684 -1 1 -25 5 -53 9 l-50 6 -93 -82 c-285
-249 -564 -363 -854 -348 -533 29 -1020 469 -1105 999 -18 109 -8 350 19 448
59 222 162 401 326 565 154 154 346 266 550 321 88 24 119 27 255 28 126 0
171 -4 241 -21 209 -53 391 -151 577 -312 l82 -72 50 7 50 7 241 324 c133 178
242 330 243 337 0 7 -44 54 -99 106 -461 430 -1012 629 -1580 569z"/>
<path d="M1302 8722 l-1203 -757 3 -64 3 -64 1192 -758 1191 -758 56 30 56 31
0 433 0 433 -558 316 c-307 174 -566 322 -576 329 -15 11 60 56 553 336 540
307 571 326 575 355 3 17 8 150 11 296 3 146 8 328 11 405 l6 140 -50 28 c-27
15 -54 27 -58 27 -5 0 -550 -341 -1212 -758z"/>
<path d="M13127 9452 l-49 -27 6 -145 c3 -80 8 -257 11 -395 3 -137 8 -268 11
-291 l5 -41 570 -324 c493 -280 568 -325 553 -336 -10 -7 -269 -155 -576 -329
l-558 -316 0 -433 0 -433 56 -31 56 -30 1191 758 1192 758 3 64 3 64 -1198
754 c-659 415 -1205 756 -1213 758 -8 1 -37 -9 -63 -25z"/>
</g>
</svg>
