<?xml version="1.0" standalone="no"?>
<!DOCTYPE svg PUBLIC "-//W3C//DTD SVG 20010904//EN"
 "http://www.w3.org/TR/2001/REC-SVG-20010904/DTD/svg10.dtd">
<svg version="1.0" xmlns="http://www.w3.org/2000/svg"
 width="1000.000000pt" height="1000.000000pt" viewBox="0 0 1000.000000 1000.000000"
 preserveAspectRatio="xMidYMid meet">
<metadata>
Created by potrace 1.11, written by Peter Selinger 2001-2013
</metadata>
<g transform="translate(0.000000,1000.000000) scale(0.100000,-0.100000)"
fill="#000000" stroke="none">
<path d="M7632 6483 c-5 -16 -49 -140 -96 -278 -48 -137 -100 -286 -116 -330
-85 -240 -185 -525 -196 -560 -7 -22 -29 -85 -49 -140 -20 -55 -51 -145 -70
-200 -38 -109 -62 -180 -155 -445 -122 -348 -202 -575 -210 -600 -5 -14 -36
-103 -69 -198 -34 -96 -61 -179 -61 -185 0 -7 9 -23 19 -36 l18 -24 237 0
c130 0 239 2 241 5 4 3 91 245 99 273 2 6 6 17 9 25 10 26 64 181 91 260 14
41 41 120 61 175 20 55 47 132 59 170 13 39 49 142 80 230 32 88 77 216 101
285 23 69 50 145 59 170 9 25 38 108 65 185 27 77 80 230 119 340 89 254 202
576 255 728 l41 117 -21 28 -20 27 -241 3 -240 2 -10 -27z"/>
<path d="M3041 6318 c-16 -35 -42 -92 -59 -128 -16 -36 -57 -123 -91 -193 -34
-71 -61 -130 -61 -132 0 -1 -24 -54 -54 -116 -29 -63 -63 -134 -74 -159 -11
-25 -50 -107 -86 -184 -36 -76 -66 -140 -66 -141 0 -2 -29 -65 -65 -140 -36
-75 -65 -138 -65 -140 0 -1 -29 -63 -64 -137 -35 -73 -75 -158 -89 -188 -37
-80 -83 -181 -277 -595 -61 -132 -121 -259 -131 -283 l-20 -43 21 -29 c12 -17
29 -30 38 -30 142 -4 558 2 564 8 5 5 41 81 82 171 41 89 77 165 81 169 3 4
222 7 485 7 l479 0 57 -125 c31 -69 68 -149 82 -177 l24 -53 293 0 293 0 16
25 c21 32 20 39 -8 99 -13 28 -38 83 -56 121 -18 39 -55 117 -82 175 -28 58
-61 130 -75 160 -30 65 -74 160 -136 290 -24 52 -56 120 -70 150 -26 57 -284
609 -357 765 -58 123 -152 324 -214 458 -35 75 -62 133 -153 326 -29 62 -53
117 -53 122 0 5 -18 9 -40 9 -39 0 -40 -1 -69 -62z m79 -1248 c0 -5 20 -51 43
-102 24 -51 56 -120 71 -153 15 -33 47 -103 70 -155 24 -52 43 -96 42 -97 -4
-5 -468 -5 -472 0 -5 4 49 127 191 435 34 73 55 101 55 72z"/>
<path d="M5557 6374 c-1 -1 -34 -4 -72 -7 -155 -13 -343 -69 -482 -143 -97
-51 -121 -65 -142 -81 -9 -7 -45 -33 -80 -59 -254 -189 -473 -544 -516 -837
-4 -23 -10 -62 -15 -87 -9 -48 -6 -315 4 -365 66 -328 181 -551 396 -764 219
-217 476 -342 803 -392 74 -11 306 -8 371 6 137 29 282 74 316 99 8 6 41 25
73 41 72 37 201 133 286 213 l64 60 -54 76 c-251 354 -263 370 -297 373 -26 3
-40 -3 -71 -32 -283 -269 -602 -314 -914 -131 -57 33 -181 143 -226 201 -56
70 -125 221 -137 300 -3 22 -8 43 -10 47 -7 10 -6 178 1 208 3 14 7 36 10 50
2 14 13 51 24 83 83 241 301 443 546 506 98 26 279 24 360 -4 122 -41 296
-145 359 -214 12 -13 31 -21 53 -21 32 0 40 9 194 216 l161 217 -53 51 c-214
205 -450 328 -711 371 -77 12 -234 25 -241 19z"/>
<path d="M1455 5989 c-49 -33 -97 -63 -105 -67 -9 -4 -94 -57 -190 -118 -178
-113 -736 -464 -890 -560 -47 -29 -89 -57 -95 -61 -5 -5 -47 -30 -92 -58 l-82
-49 2 -41 c2 -44 2 -44 304 -236 49 -30 130 -82 180 -115 51 -32 104 -66 118
-74 31 -19 343 -217 502 -319 120 -78 270 -173 381 -241 l57 -36 33 19 32 19
0 278 0 279 -27 19 c-16 10 -64 38 -108 62 -44 24 -93 51 -110 60 -16 10 -131
75 -255 145 -124 70 -229 130 -233 134 -4 4 61 46 145 94 84 47 158 91 165 97
7 5 14 10 17 10 8 0 381 212 393 224 7 7 13 86 18 236 4 124 8 247 9 274 2 45
0 50 -28 67 -17 11 -35 19 -41 18 -5 0 -50 -27 -100 -60z"/>
<path d="M8405 6032 c-30 -16 -31 -20 -29 -77 2 -33 5 -118 8 -190 3 -71 5
-170 6 -220 l0 -90 63 -34 c34 -19 125 -70 202 -114 77 -44 160 -91 185 -105
87 -49 106 -59 198 -112 l93 -53 -28 -19 c-24 -16 -174 -102 -354 -202 -30
-17 -123 -69 -207 -116 l-151 -85 -1 -278 c0 -277 0 -279 23 -298 30 -25 46
-24 98 9 135 87 717 457 733 466 11 6 25 15 30 19 11 8 557 355 669 426 56 35
58 37 55 76 -2 38 -6 43 -78 89 -41 27 -88 57 -105 66 -16 10 -167 104 -335
210 -440 279 -681 430 -712 449 -15 9 -93 58 -173 109 -81 50 -150 92 -153 92
-4 -1 -21 -9 -37 -18z"/>
</g>
</svg>
