<?xml version="1.0" standalone="no"?>
<!DOCTYPE svg PUBLIC "-//W3C//DTD SVG 20010904//EN"
 "http://www.w3.org/TR/2001/REC-SVG-20010904/DTD/svg10.dtd">
<svg version="1.0" xmlns="http://www.w3.org/2000/svg"
 width="512.000000pt" height="512.000000pt" viewBox="0 0 512.000000 512.000000"
 preserveAspectRatio="xMidYMid meet">
<metadata>
Created by potrace 1.11, written by Peter Selinger 2001-2013
</metadata>
<g transform="translate(0.000000,512.000000) scale(0.100000,-0.100000)"
fill="#000000" stroke="none">
<path d="M161 5108 c-65 -14 -135 -88 -150 -157 -16 -74 -16 -4708 0 -4782 16
-74 84 -142 158 -158 74 -16 4708 -16 4782 0 74 16 142 84 158 158 16 74 16
4708 0 4782 -16 74 -84 142 -158 158 -68 14 -4724 14 -4790 -1z m3943 -1696
c15 -18 13 -28 -40 -178 -31 -87 -75 -215 -99 -284 -24 -69 -71 -204 -105
-300 -34 -96 -66 -186 -70 -200 -4 -14 -36 -104 -70 -200 -34 -96 -73 -210
-88 -252 l-26 -78 -122 0 c-150 0 -155 3 -126 87 12 32 48 137 82 233 34 96
66 186 70 200 5 14 34 97 65 185 31 88 61 171 65 185 4 14 36 104 70 200 34
96 79 226 100 288 22 62 42 117 45 122 4 6 56 10 119 10 97 0 115 -3 130 -18z
m-2454 -104 c13 -29 48 -105 78 -168 30 -63 148 -317 264 -565 116 -247 219
-467 229 -488 14 -31 16 -42 6 -58 -11 -17 -25 -19 -157 -19 l-145 0 -42 90
-42 90 -236 0 -236 0 -42 -90 -41 -90 -146 0 c-129 0 -146 2 -157 18 -12 19
-14 12 75 202 22 47 116 249 210 450 93 201 193 414 222 475 28 60 61 131 72
157 29 68 56 66 88 -4z m1311 37 c40 -9 100 -28 133 -43 74 -33 226 -144 226
-165 0 -4 -35 -55 -77 -113 -50 -66 -85 -104 -96 -104 -10 0 -37 15 -60 34
-168 136 -366 122 -512 -36 -138 -149 -137 -351 3 -500 58 -62 110 -93 191
-114 54 -13 73 -14 127 -4 65 12 156 59 205 106 44 42 58 33 142 -87 43 -61
77 -114 75 -118 -9 -25 -134 -117 -203 -151 -95 -45 -159 -60 -263 -60 -264 1
-500 150 -619 391 -92 188 -87 421 14 612 55 102 183 229 288 284 44 22 114
49 155 58 41 9 80 18 85 20 27 9 121 3 186 -10z m-2093 -307 l-3 -141 -177
-100 c-98 -56 -178 -104 -178 -107 0 -4 81 -53 180 -109 l180 -102 0 -139 c0
-130 -1 -140 -21 -150 -18 -10 -69 20 -404 232 -346 219 -384 245 -382 268 2
20 35 45 192 144 105 65 278 174 385 241 155 98 199 121 213 113 16 -8 17 -23
15 -150z m3722 -50 c146 -92 304 -192 353 -222 100 -63 111 -88 55 -121 -18
-10 -191 -119 -384 -242 -237 -151 -356 -221 -367 -217 -15 5 -17 26 -17 153
l0 146 179 100 c98 55 177 103 175 106 -2 3 -82 50 -177 103 l-174 98 -7 66
c-3 37 -6 102 -6 144 0 63 3 79 17 87 21 11 -10 29 353 -201z"/>
<path d="M1591 2678 c-8 -18 -34 -75 -57 -125 l-43 -93 114 0 114 0 -28 63
c-16 34 -41 90 -57 125 l-29 63 -14 -33z"/>
</g>
</svg>
